<svg width="140" height="101" viewBox="0 0 140 101" fill="none" xmlns="http://www.w3.org/2000/svg">
<path d="M-124.015 87.322C-124.015 85.826 -123.67 84.484 -122.981 83.296C-122.277 82.108 -121.331 81.184 -120.143 80.524C-118.94 79.8493 -117.628 79.512 -116.205 79.512C-114.577 79.512 -113.132 79.9153 -111.871 80.722C-110.595 81.514 -109.671 82.6433 -109.099 84.11H-112.113C-112.509 83.3033 -113.059 82.702 -113.763 82.306C-114.467 81.91 -115.281 81.712 -116.205 81.712C-117.217 81.712 -118.119 81.9393 -118.911 82.394C-119.703 82.8487 -120.326 83.5013 -120.781 84.352C-121.221 85.2027 -121.441 86.1927 -121.441 87.322C-121.441 88.4513 -121.221 89.4413 -120.781 90.292C-120.326 91.1427 -119.703 91.8027 -118.911 92.272C-118.119 92.7267 -117.217 92.954 -116.205 92.954C-115.281 92.954 -114.467 92.756 -113.763 92.36C-113.059 91.964 -112.509 91.3627 -112.113 90.556H-109.099C-109.671 92.0227 -110.595 93.152 -111.871 93.944C-113.132 94.736 -114.577 95.132 -116.205 95.132C-117.642 95.132 -118.955 94.802 -120.143 94.142C-121.331 93.4673 -122.277 92.536 -122.981 91.348C-123.67 90.16 -124.015 88.818 -124.015 87.322ZM-100.905 95.198C-102.049 95.198 -103.083 94.9413 -104.007 94.428C-104.931 93.9 -105.657 93.1667 -106.185 92.228C-106.713 91.2747 -106.977 90.1747 -106.977 88.928C-106.977 87.696 -106.706 86.6033 -106.163 85.65C-105.621 84.6967 -104.88 83.9633 -103.941 83.45C-103.003 82.9367 -101.954 82.68 -100.795 82.68C-99.6368 82.68 -98.5881 82.9367 -97.6495 83.45C-96.7108 83.9633 -95.9701 84.6967 -95.4275 85.65C-94.8848 86.6033 -94.6135 87.696 -94.6135 88.928C-94.6135 90.16 -94.8921 91.2527 -95.4495 92.206C-96.0068 93.1593 -96.7695 93.9 -97.7375 94.428C-98.6908 94.9413 -99.7468 95.198 -100.905 95.198ZM-100.905 93.02C-100.26 93.02 -99.6588 92.866 -99.1015 92.558C-98.5295 92.25 -98.0675 91.788 -97.7155 91.172C-97.3635 90.556 -97.1875 89.808 -97.1875 88.928C-97.1875 88.048 -97.3561 87.3073 -97.6935 86.706C-98.0308 86.09 -98.4781 85.628 -99.0355 85.32C-99.5928 85.012 -100.194 84.858 -100.839 84.858C-101.485 84.858 -102.086 85.012 -102.643 85.32C-103.186 85.628 -103.619 86.09 -103.941 86.706C-104.264 87.3073 -104.425 88.048 -104.425 88.928C-104.425 90.2333 -104.095 91.2453 -103.435 91.964C-102.761 92.668 -101.917 93.02 -100.905 93.02ZM-92.9702 88.884C-92.9702 87.6667 -92.7208 86.5887 -92.2222 85.65C-91.7088 84.7113 -91.0195 83.9853 -90.1542 83.472C-89.2742 82.944 -88.2988 82.68 -87.2282 82.68C-86.4362 82.68 -85.6588 82.856 -84.8962 83.208C-84.1188 83.5453 -83.5028 84 -83.0482 84.572V78.72H-80.5182V95H-83.0482V93.174C-83.4588 93.7607 -84.0308 94.2447 -84.7642 94.626C-85.4828 95.0073 -86.3115 95.198 -87.2502 95.198C-88.3062 95.198 -89.2742 94.934 -90.1542 94.406C-91.0195 93.8633 -91.7088 93.1153 -92.2222 92.162C-92.7208 91.194 -92.9702 90.1013 -92.9702 88.884ZM-83.0482 88.928C-83.0482 88.092 -83.2242 87.366 -83.5762 86.75C-83.9135 86.134 -84.3608 85.6647 -84.9182 85.342C-85.4755 85.0193 -86.0768 84.858 -86.7222 84.858C-87.3675 84.858 -87.9688 85.0193 -88.5262 85.342C-89.0835 85.65 -89.5382 86.112 -89.8902 86.728C-90.2275 87.3293 -90.3962 88.048 -90.3962 88.884C-90.3962 89.72 -90.2275 90.4533 -89.8902 91.084C-89.5382 91.7147 -89.0835 92.1987 -88.5262 92.536C-87.9542 92.8587 -87.3528 93.02 -86.7222 93.02C-86.0768 93.02 -85.4755 92.8587 -84.9182 92.536C-84.3608 92.2133 -83.9135 91.744 -83.5762 91.128C-83.2242 90.4973 -83.0482 89.764 -83.0482 88.928ZM-66.312 82.878L-73.748 100.698H-76.344L-73.88 94.802L-78.654 82.878H-75.86L-72.45 92.118L-68.908 82.878H-66.312ZM-49.7065 79.71V81.756H-56.1965V86.266H-51.1365V88.312H-56.1965V95H-58.7045V79.71H-49.7065ZM-46.1062 81.272C-46.5609 81.272 -46.9422 81.118 -47.2502 80.81C-47.5582 80.502 -47.7122 80.1207 -47.7122 79.666C-47.7122 79.2113 -47.5582 78.83 -47.2502 78.522C-46.9422 78.214 -46.5609 78.06 -46.1062 78.06C-45.6662 78.06 -45.2922 78.214 -44.9842 78.522C-44.6762 78.83 -44.5222 79.2113 -44.5222 79.666C-44.5222 80.1207 -44.6762 80.502 -44.9842 80.81C-45.2922 81.118 -45.6662 81.272 -46.1062 81.272ZM-44.8742 82.878V95H-47.3822V82.878H-44.8742ZM-37.1814 95.198C-38.1348 95.198 -38.9928 95.0293 -39.7554 94.692C-40.5034 94.34 -41.0974 93.8707 -41.5374 93.284C-41.9774 92.6827 -42.2121 92.0153 -42.2414 91.282H-39.6454C-39.6014 91.7953 -39.3594 92.228 -38.9194 92.58C-38.4648 92.9173 -37.9001 93.086 -37.2254 93.086C-36.5214 93.086 -35.9788 92.954 -35.5974 92.69C-35.2014 92.4113 -35.0034 92.0593 -35.0034 91.634C-35.0034 91.1793 -35.2234 90.842 -35.6634 90.622C-36.0888 90.402 -36.7708 90.16 -37.7094 89.896C-38.6188 89.6467 -39.3594 89.4047 -39.9314 89.17C-40.5034 88.9353 -41.0021 88.576 -41.4274 88.092C-41.8381 87.608 -42.0434 86.97 -42.0434 86.178C-42.0434 85.5327 -41.8528 84.946 -41.4714 84.418C-41.0901 83.8753 -40.5474 83.45 -39.8434 83.142C-39.1248 82.834 -38.3034 82.68 -37.3794 82.68C-36.0008 82.68 -34.8934 83.032 -34.0574 83.736C-33.2068 84.4253 -32.7521 85.3713 -32.6934 86.574H-35.2014C-35.2454 86.0313 -35.4654 85.5987 -35.8614 85.276C-36.2574 84.9533 -36.7928 84.792 -37.4674 84.792C-38.1274 84.792 -38.6334 84.9167 -38.9854 85.166C-39.3374 85.4153 -39.5134 85.7453 -39.5134 86.156C-39.5134 86.4787 -39.3961 86.75 -39.1614 86.97C-38.9268 87.19 -38.6408 87.366 -38.3034 87.498C-37.9661 87.6153 -37.4674 87.7693 -36.8074 87.96C-35.9274 88.1947 -35.2088 88.4367 -34.6514 88.686C-34.0794 88.9207 -33.5881 89.2727 -33.1774 89.742C-32.7668 90.2113 -32.5541 90.8347 -32.5394 91.612C-32.5394 92.3013 -32.7301 92.9173 -33.1114 93.46C-33.4928 94.0027 -34.0354 94.428 -34.7394 94.736C-35.4288 95.044 -36.2428 95.198 -37.1814 95.198ZM-23.5595 82.68C-22.6355 82.68 -21.8142 82.878 -21.0955 83.274C-20.3622 83.67 -19.7902 84.2567 -19.3795 85.034C-18.9542 85.8113 -18.7415 86.75 -18.7415 87.85V95H-21.2275V88.224C-21.2275 87.1387 -21.4988 86.31 -22.0415 85.738C-22.5842 85.1513 -23.3248 84.858 -24.2635 84.858C-25.2022 84.858 -25.9502 85.1513 -26.5075 85.738C-27.0502 86.31 -27.3215 87.1387 -27.3215 88.224V95H-29.8295V78.72H-27.3215V84.286C-26.8962 83.7727 -26.3608 83.3767 -25.7155 83.098C-25.0555 82.8193 -24.3368 82.68 -23.5595 82.68ZM-4.43238 88.642C-4.43238 89.0967 -4.46172 89.5073 -4.52038 89.874H-13.7824C-13.709 90.842 -13.3497 91.6193 -12.7044 92.206C-12.059 92.7927 -11.267 93.086 -10.3284 93.086C-8.97905 93.086 -8.02572 92.5213 -7.46838 91.392H-4.76238C-5.12905 92.5067 -5.79638 93.4233 -6.76438 94.142C-7.71772 94.846 -8.90572 95.198 -10.3284 95.198C-11.487 95.198 -12.5284 94.9413 -13.4524 94.428C-14.3617 93.9 -15.0804 93.1667 -15.6084 92.228C-16.1217 91.2747 -16.3784 90.1747 -16.3784 88.928C-16.3784 87.6813 -16.129 86.5887 -15.6304 85.65C-15.117 84.6967 -14.4057 83.9633 -13.4964 83.45C-12.5724 82.9367 -11.5164 82.68 -10.3284 82.68C-9.18438 82.68 -8.16505 82.9293 -7.27038 83.428C-6.37572 83.9267 -5.67905 84.6307 -5.18038 85.54C-4.68172 86.4347 -4.43238 87.4687 -4.43238 88.642ZM-7.05038 87.85C-7.06505 86.926 -7.39505 86.1853 -8.04038 85.628C-8.68572 85.0707 -9.48505 84.792 -10.4384 84.792C-11.3037 84.792 -12.0444 85.0707 -12.6604 85.628C-13.2764 86.1707 -13.643 86.9113 -13.7604 87.85H-7.05038ZM0.543742 84.638C0.910409 84.022 1.39441 83.5453 1.99574 83.208C2.61174 82.856 3.33774 82.68 4.17374 82.68V85.276H3.53574C2.55308 85.276 1.80508 85.5253 1.29174 86.024C0.793076 86.5227 0.543742 87.388 0.543742 88.62V95H-1.96426V82.878H0.543742V84.638Z" fill="white" fill-opacity="0.6"/>
</svg>
